HIERARCHY
ROOT Hips
{
	OFFSET -3.958830 18.904000 13.208200
	CHANNELS 6 Xposition Yposition Zposition Zrotation Yrotation Xrotation 
	JOINT LHipJoint
	{
		OFFSET 0.000000 0.000000 0.000000
		CHANNELS 3 Zrotation Yrotation Xrotation
		JOINT LeftUpLeg
		{
			OFFSET 1.800000 -1.400000 0.085000
			CHANNELS 3 Zrotation Yrotation Xrotation
			JOINT LeftLeg
			{
				OFFSET 2.215000 -6.000000 0.000000
				CHANNELS 3 Zrotation Yrotation Xrotation
				JOINT LeftFoot
				{
					OFFSET 2.500000 -6.900000 0.000000
					CHANNELS 3 Zrotation Yrotation Xrotation
					JOINT LeftToeBase
					{
						OFFSET 0.200000 -0.500000 1.950000
						CHANNELS 3 Zrotation Yrotation Xrotation
						End Site
						{
							OFFSET 0.000000 0.000000 0.000000
						}
					}
				}
			}
		}
	}
	JOINT RHipJoint
	{
		OFFSET 0.000000 0.000000 0.000000
		CHANNELS 3 Zrotation Yrotation Xrotation
		JOINT RightUpLeg
		{
			OFFSET -1.800000 -1.400000 0.085000
			CHANNELS 3 Zrotation Yrotation Xrotation
			JOINT RightLeg
			{
				OFFSET -2.215000 -6.000000 0.000000
				CHANNELS 3 Zrotation Yrotation Xrotation
				JOINT RightFoot
				{
					OFFSET -2.500000 -6.900000 0.000000
					CHANNELS 3 Zrotation Yrotation Xrotation
					JOINT RightToeBase
					{
						OFFSET -0.200000 -0.500000 1.950000
						CHANNELS 3 Zrotation Yrotation Xrotation
						End Site
						{
							OFFSET 0.000000 0.000000 0.000000
						}
					}
				}
			}
		}
	}
	JOINT LowerBack
	{
		OFFSET 0.000000 0.000000 0.000000
		CHANNELS 3 Zrotation Yrotation Xrotation
		JOINT Spine
		{
			OFFSET -0.087000 1.940000 -0.288900
			CHANNELS 3 Zrotation Yrotation Xrotation
			JOINT Spine1
			{
				OFFSET 0.000000 1.950000 0.060000
				CHANNELS 3 Zrotation Yrotation Xrotation
				JOINT Neck
				{
					OFFSET 0.000000 0.000000 0.000000
					CHANNELS 3 Zrotation Yrotation Xrotation
					JOINT Neck1
					{
						OFFSET 0.000000 1.600000 0.340000
						CHANNELS 3 Zrotation Yrotation Xrotation
						JOINT Head
						{
							OFFSET 0.000000 1.667000 -0.240000
							CHANNELS 3 Zrotation Yrotation Xrotation
							End Site
							{
								OFFSET 0.000000 0.000000 0.000000
							}
						}
					}
				}
				JOINT LeftShoulder
				{
					OFFSET 0.000000 0.000000 0.000000
					CHANNELS 3 Zrotation Yrotation Xrotation
					JOINT LeftArm
					{
						OFFSET 2.700000 1.550000 -0.730000
						CHANNELS 3 Zrotation Yrotation Xrotation
						JOINT LeftForeArm
						{
							OFFSET 5.450000 0.000000 0.000000
							CHANNELS 3 Zrotation Yrotation Xrotation
							JOINT LeftHand
							{
								OFFSET 3.450000 0.000000 0.000000
								CHANNELS 3 Zrotation Yrotation Xrotation
								JOINT LeftHandIndex1
								{
									OFFSET 0.750000 0.000000 0.000000
									CHANNELS 3 Zrotation Yrotation Xrotation
									End Site
									{
										OFFSET 0.000000 0.000000 0.000000
									}
								}
							}
						}
					}
				}
				JOINT RightShoulder
				{
					OFFSET 0.000000 0.000000 0.000000
					CHANNELS 3 Zrotation Yrotation Xrotation
					JOINT RightArm
					{
						OFFSET -2.700000 1.550000 -0.730000
						CHANNELS 3 Zrotation Yrotation Xrotation
						JOINT RightForeArm
						{
							OFFSET -5.450000 0.000000 0.000000
							CHANNELS 3 Zrotation Yrotation Xrotation
							JOINT RightHand
							{
								OFFSET -3.450000 0.000000 0.000000
								CHANNELS 3 Zrotation Yrotation Xrotation
								JOINT RightHandIndex1
								{
									OFFSET -0.750000 0.000000 0.000000
									CHANNELS 3 Zrotation Yrotation Xrotation
									End Site
									{
										OFFSET 0.000000 0.000000 0.000000
									}
								}
							}
						}
					}
				}
			}
		}
	}
}
MOTION
Frames: 7
Frame Time: 0.016667
1.026550 16.803020 1.792000 -1.325629 23.338636 2.434785 -15.432904 11.404805 5.247174 1.298553 -10.157844 -46.057057 7.129790 5.027302 43.811493 0.008466 6.425004 2.007965 0.384200 0.303970 0.360460 18.118628 -10.419257 2.661617 -27.815689 3.444363 -20.140274 15.557420 -13.025983 33.213265 -0.569730 -6.627504 1.759112 0.233970 -0.173110 0.035810 -3.434867 -0.458712 -9.038105 8.817737 6.219733 28.512975 0.737341 8.725894 9.137932 2.792120 1.196723 -11.872339 -0.221678 -5.298795 56.419963 -1.784240 -5.594120 -8.641990 -27.418274 -20.117434 6.839338 -37.324876 -10.786854 -6.260805 -35.594936 -64.556270 17.761186 -3.449060 3.246096 0.362200 -0.136540 0.185950 -0.008100 22.131802 26.681624 6.380001 35.995391 31.553901 -3.900730 6.329236 47.546195 2.002868 2.080086 -1.376113 -0.047010 0.162960 -0.061060 -0.159760 
0.968230 16.658890 1.724420 -1.672367 24.314936 3.259622 -15.495803 10.987639 5.666968 1.881357 -11.458017 -50.407653 8.596599 4.912114 47.729578 0.133173 7.104036 1.750816 0.403160 0.319910 0.395210 18.179216 -9.818651 2.936455 -29.614414 4.198851 -22.570954 19.059326 -15.232244 35.771907 -0.772789 -7.352784 1.502994 0.220700 -0.242170 0.026610 -3.370916 -0.773668 -9.432212 9.968646 5.493289 32.584054 -0.977497 9.096698 5.662788 3.088329 1.080945 -12.290110 -0.701993 -5.351914 56.868877 -1.287740 -6.028700 -10.649470 -30.181374 -20.188247 6.620089 -36.654297 -6.285060 -7.823252 -41.105781 -56.649478 17.790931 -3.379712 3.233133 0.429290 -0.202750 0.245100 -0.025640 24.070089 27.218971 6.755149 37.058732 28.938733 -4.031739 19.492682 46.555309 6.694010 2.135015 -1.451270 -0.035380 0.158710 -0.073970 -0.177110 
0.903930 16.539770 1.667090 -1.747332 25.567371 4.115736 -15.525132 10.552776 5.992395 2.158104 -12.661038 -54.026348 9.769513 4.709794 50.745745 0.251079 7.602964 1.566684 0.431630 0.346130 0.422740 18.268221 -9.260035 3.256077 -31.754258 4.832224 -24.705422 23.052391 -17.497225 37.321752 -0.987322 -8.027037 1.274903 0.210420 -0.302680 0.013090 -3.398470 -0.950513 -9.780129 11.816836 4.796848 36.173338 -3.145148 9.808281 2.963120 3.473106 0.455923 -13.165881 -2.551709 -5.149819 59.328419 -0.004930 -7.526210 -12.143540 -31.344861 -20.598172 6.285103 -36.858865 -3.664714 -8.740148 -42.199942 -49.843089 15.423295 -3.286419 3.194225 0.486470 -0.277980 0.302610 -0.029700 24.317332 28.429855 7.457870 37.487928 26.137421 -4.414428 31.608427 45.423216 10.496427 2.188612 -1.504277 -0.014420 0.161350 -0.094220 -0.175980 
0.839020 16.444560 1.613300 -1.731403 26.828781 5.073754 -15.537900 10.119783 6.238983 1.921488 -13.756405 -57.155235 11.558961 4.007575 52.741812 0.313499 7.888267 1.450269 0.473110 0.395220 0.460790 18.368212 -8.774689 3.563291 -33.959476 5.276062 -26.575629 27.161323 -19.426972 37.617713 -1.177483 -8.530971 1.106345 0.223300 -0.362600 0.005800 -3.459615 -0.971781 -10.043892 13.519235 4.066705 38.891123 -5.149638 10.290682 1.068649 3.963316 0.387535 -13.559406 -2.848885 -5.219573 61.481367 0.790050 -8.261950 -13.995120 -31.942543 -20.399906 5.947205 -37.343555 -1.388156 -9.458218 -42.824900 -44.844531 13.457634 -3.216278 3.157564 0.538930 -0.337310 0.359780 -0.035390 23.789740 28.650238 7.504928 38.885898 24.411652 -4.648042 40.009853 43.988258 12.537782 2.237919 -1.519335 0.002910 0.166090 -0.115370 -0.183400 
0.773150 16.377200 1.563840 -1.365879 28.006154 6.090178 -15.545627 9.788445 6.429709 1.265937 -14.843002 -59.374337 13.247249 3.128876 53.672565 0.345488 7.973195 1.403592 0.515590 0.448360 0.485350 18.449446 -8.397224 3.795108 -35.933743 5.403627 -28.057420 30.333517 -20.753390 37.398168 -1.320338 -8.828595 1.004365 0.238380 -0.412520 0.000690 -3.514658 -1.013606 -10.232723 14.898951 3.209070 41.277226 -6.726220 10.443074 -0.417985 4.264079 -0.214554 -13.861483 -4.339480 -4.777817 63.954543 1.960450 -9.357600 -16.095630 -31.866276 -19.925743 5.715550 -38.180731 0.923905 -10.334036 -44.098974 -41.854395 12.402460 -3.144825 3.131009 0.590210 -0.398790 0.415770 -0.033830 23.069413 28.891033 7.389104 40.563828 23.427315 -4.807121 47.856882 41.813442 13.908615 2.293643 -1.527141 0.022620 0.176870 -0.133040 -0.180070 
0.706980 16.346180 1.522140 -1.131108 29.205376 6.484339 -15.559201 9.651395 6.548778 0.219035 -15.695596 -60.457875 15.093302 1.984067 53.469900 0.347726 7.869662 1.426529 0.549390 0.486420 0.504110 18.481096 -8.158636 3.903213 -36.984280 5.542319 -28.485442 32.470383 -21.319798 36.740731 -1.402136 -8.922871 0.967254 0.247320 -0.449560 -0.000600 -3.528707 -1.172014 -10.320323 16.540906 2.216208 43.961058 -7.972412 10.659771 -1.924973 4.589523 -0.939005 -14.064934 -6.185830 -4.145905 66.700542 2.850420 -10.601430 -17.564600 -32.735732 -19.328804 5.392356 -38.748259 3.227784 -11.260218 -44.396265 -39.871490 11.397778 -3.075921 3.113631 0.630140 -0.448380 0.459600 -0.030730 23.293351 29.136330 7.240009 41.305195 22.714456 -4.943194 53.738696 38.498054 14.087544 2.327175 -1.536832 0.040340 0.185450 -0.146740 -0.173700 
0.630400 16.308980 1.487820 -0.916370 29.828808 7.104465 -15.579794 9.488305 6.680022 0.019479 -16.386997 -61.817487 16.009482 1.411895 53.565028 0.361165 7.860754 1.423630 0.569900 0.516900 0.515910 18.511020 -7.945763 3.984452 -37.495191 5.562666 -29.543090 33.622230 -21.864410 36.927047 -1.466835 -9.039937 0.931835 0.256480 -0.466560 -0.003320 -3.510773 -1.259040 -10.402409 17.352543 1.801507 45.841442 -8.644272 11.009497 -3.289836 4.729249 -0.967509 -13.779217 -6.370770 -4.133277 67.935686 3.761510 -11.024130 -18.474240 -33.144952 -18.427141 4.896167 -39.295757 4.463213 -11.881802 -44.739821 -39.014887 11.045982 -3.051569 3.100295 0.647510 -0.472210 0.485330 -0.027130 23.361256 28.446298 6.845098 42.110716 21.474086 -5.367620 59.571452 35.392624 13.978496 2.351213 -1.568478 0.050850 0.193060 -0.158420 -0.168620 
